<svg width="508" height="48" viewBox="0 0 508 48" fill="none" xmlns="http://www.w3.org/2000/svg">
<path d="M3.83607 39.7925C2.92928 39.7925 1.85582 37.4447 1.68427 37.0354C1.18921 35.8492 1.3191 34.4988 2.03718 33.4229C2.76507 32.3298 3.98312 31.6755 5.29185 31.6755C6.86772 31.6755 8.27448 32.6092 8.87738 34.0577C8.91169 34.1385 8.96316 34.2341 9.01953 34.3419C9.32588 34.9277 9.83565 35.9056 9.2303 36.8589C8.76219 37.5966 4.74532 39.7901 3.83607 39.7901V39.7925Z" fill="#808080"/>
<path d="M15.3596 0.694824C8.61257 0.694824 2.85809 6.96888 0.58374 15.7967H7.89204C9.57084 10.8755 12.5731 7.71148 15.3596 7.71148C19.5162 7.71148 24.1629 14.7502 24.1629 24.1686C24.1629 33.5871 19.5162 40.6258 15.3596 40.6258C12.8329 40.6258 10.1247 38.0206 8.38955 33.8591C7.84792 32.5602 6.57105 31.7171 5.16429 31.7171C2.67918 31.7171 0.956259 34.2439 1.91697 36.5354C4.70599 43.2016 9.68358 47.6424 15.3596 47.6424C24.0968 47.6424 31.1796 37.1334 31.1796 24.1686C31.1796 11.2039 24.0968 0.694824 15.3596 0.694824Z" fill="#AFAFAF"/>
<path d="M24.8713 8.6994C22.271 4.83939 18.8913 2.71454 15.3597 2.71454C9.72288 2.71454 4.78206 8.04994 2.66211 15.7969H3.08855C4.85068 11.3144 8.7303 4.13601 15.5411 4.01101C21.4059 3.90318 28.1015 12.6011 27.876 24.1689C27.6799 34.1829 22.0725 44.4321 16.2077 44.4321C13.5094 44.4321 12.7202 45.6257 15.3622 45.6257C18.8962 45.6257 22.2734 43.5008 24.8738 39.6408C27.6383 35.5382 29.1627 30.0435 29.1627 24.1713C29.1627 18.2992 27.6407 12.8045 24.8738 8.70185L24.8713 8.6994Z" fill="#C8C8C8"/>
<path d="M268.623 39.7925C267.716 39.7925 266.643 37.4447 266.471 37.0354C265.976 35.8492 266.106 34.4988 266.824 33.4229C267.552 32.3298 268.77 31.6755 270.079 31.6755C271.655 31.6755 273.061 32.6092 273.664 34.0577C273.699 34.1385 273.75 34.2341 273.806 34.3419C274.113 34.9277 274.623 35.9056 274.017 36.8589C273.549 37.5966 269.532 39.7901 268.623 39.7901V39.7925Z" fill="#808080"/>
<path d="M280.147 0.694824C273.399 0.694824 267.645 6.96888 265.371 15.7967H272.679C274.358 10.8755 277.36 7.71148 280.147 7.71148C284.303 7.71148 288.95 14.7502 288.95 24.1686C288.95 33.5871 284.303 40.6258 280.147 40.6258C277.62 40.6258 274.912 38.0206 273.176 33.8591C272.635 32.5602 271.358 31.7171 269.951 31.7171C267.466 31.7171 265.743 34.2439 266.704 36.5354C269.493 43.2016 274.47 47.6424 280.147 47.6424C288.884 47.6424 295.966 37.1334 295.966 24.1686C295.966 11.2039 288.884 0.694824 280.147 0.694824Z" fill="#AFAFAF"/>
<path d="M289.658 8.6994C287.058 4.83939 283.678 2.71454 280.147 2.71454C274.51 2.71454 269.569 8.04994 267.449 15.7969H267.875C269.638 11.3144 273.517 4.13601 280.328 4.01101C286.193 3.90318 292.888 12.6011 292.663 24.1689C292.467 34.1829 286.859 44.4321 280.995 44.4321C278.296 44.4321 277.507 45.6257 280.149 45.6257C283.683 45.6257 287.06 43.5008 289.661 39.6408C292.425 35.5382 293.95 30.0435 293.95 24.1713C293.95 18.2992 292.428 12.8045 289.661 8.70185L289.658 8.6994Z" fill="#C8C8C8"/>
<path d="M56.8009 39.7925C55.8941 39.7925 54.8206 37.4447 54.6491 37.0354C54.154 35.8492 54.2839 34.4988 55.002 33.4229C55.7299 32.3298 56.9455 31.6755 58.2566 31.6755C59.8325 31.6755 61.2393 32.6092 61.8422 34.0577C61.8765 34.1385 61.9279 34.2341 61.9843 34.3419C62.2907 34.9277 62.8004 35.9056 62.1951 36.8589C61.727 37.5966 57.7101 39.7901 56.8009 39.7901V39.7925Z" fill="#808080"/>
<path d="M68.3247 0.694824C61.5752 0.694824 55.8183 6.97379 53.5464 15.8065H60.8547C62.5335 10.8804 65.5382 7.71148 68.3247 7.71148C72.4813 7.71148 77.128 14.7502 77.128 24.1686C77.128 33.5871 72.4813 40.6258 68.3247 40.6258C65.798 40.6258 63.0898 38.0206 61.3546 33.8591C60.813 32.5602 59.5361 31.7171 58.1294 31.7171C55.6443 31.7171 53.9214 34.2439 54.8821 36.5354C57.6711 43.2016 62.6487 47.6424 68.3247 47.6424C77.0619 47.6424 84.1447 37.1334 84.1447 24.1686C84.1447 11.2039 77.0619 0.694824 68.3247 0.694824Z" fill="#AFAFAF"/>
<path d="M77.8362 8.6994C75.2359 4.83939 71.8563 2.71454 68.3246 2.71454C62.6853 2.71454 57.7421 8.05484 55.6246 15.8067H56.051C57.8131 11.3242 61.6928 4.13601 68.506 4.01101C74.3708 3.90318 81.0664 12.6011 80.8409 24.1689C80.6448 34.1829 75.0374 44.4321 69.1726 44.4321C66.4743 44.4321 65.6851 45.6257 68.3271 45.6257C71.8612 45.6257 75.2384 43.5008 77.8387 39.6408C80.6032 35.5382 82.1276 30.0435 82.1276 24.1713C82.1276 18.2992 80.6056 12.8045 77.8387 8.70185L77.8362 8.6994Z" fill="#C8C8C8"/>
<path d="M321.588 39.7925C320.681 39.7925 319.607 37.4447 319.436 37.0354C318.941 35.8492 319.071 34.4988 319.789 33.4229C320.517 32.3298 321.732 31.6755 323.044 31.6755C324.619 31.6755 326.026 32.6092 326.629 34.0577C326.663 34.1385 326.715 34.2341 326.771 34.3419C327.078 34.9277 327.587 35.9056 326.982 36.8589C326.514 37.5966 322.497 39.7901 321.588 39.7901V39.7925Z" fill="#808080"/>
<path d="M333.112 0.694824C326.362 0.694824 320.605 6.97379 318.333 15.8065H325.642C327.32 10.8804 330.325 7.71148 333.112 7.71148C337.268 7.71148 341.915 14.7502 341.915 24.1686C341.915 33.5871 337.268 40.6258 333.112 40.6258C330.585 40.6258 327.877 38.0206 326.142 33.8591C325.6 32.5602 324.323 31.7171 322.916 31.7171C320.431 31.7171 318.708 34.2439 319.669 36.5354C322.458 43.2016 327.436 47.6424 333.112 47.6424C341.849 47.6424 348.932 37.1334 348.932 24.1686C348.932 11.2039 341.849 0.694824 333.112 0.694824Z" fill="#AFAFAF"/>
<path d="M342.623 8.6994C340.023 4.83939 336.643 2.71454 333.112 2.71454C327.472 2.71454 322.529 8.05484 320.411 15.8067H320.838C322.6 11.3242 326.48 4.13601 333.293 4.01101C339.158 3.90318 345.853 12.6011 345.628 24.1689C345.432 34.1829 339.824 44.4321 333.959 44.4321C331.261 44.4321 330.472 45.6257 333.114 45.6257C336.648 45.6257 340.025 43.5008 342.626 39.6408C345.39 35.5382 346.914 30.0435 346.914 24.1713C346.914 18.2992 345.392 12.8045 342.626 8.70185L342.623 8.6994Z" fill="#C8C8C8"/>
<path d="M109.727 39.7925C108.82 39.7925 107.747 37.4447 107.575 37.0354C107.08 35.8492 107.21 34.4988 107.928 33.4229C108.656 32.3298 109.872 31.6755 111.183 31.6755C112.759 31.6755 114.165 32.6092 114.768 34.0577C114.803 34.1385 114.854 34.2341 114.911 34.3419C115.217 34.9277 115.727 35.9056 115.121 36.8589C114.653 37.5966 110.636 39.7901 109.73 39.7901L109.727 39.7925Z" fill="#808080"/>
<path d="M121.251 0.694824C114.538 0.694824 108.808 7.03751 106.512 15.7942H113.832C115.521 10.9514 118.494 7.71148 121.251 7.71148C125.407 7.71148 130.054 14.7502 130.054 24.1686C130.054 33.5871 125.407 40.6258 121.251 40.6258C118.724 40.6258 116.016 38.0206 114.281 33.8591C113.739 32.5602 112.462 31.7171 111.056 31.7171C108.57 31.7171 106.847 34.2439 107.808 36.5354C110.597 43.2016 115.575 47.6424 121.251 47.6424C129.988 47.6424 137.071 37.1334 137.071 24.1686C137.071 11.2039 129.988 0.694824 121.251 0.694824Z" fill="#AFAFAF"/>
<path d="M130.762 8.6994C128.162 4.83939 124.782 2.71454 121.251 2.71454C115.648 2.71454 110.732 8.12102 108.592 15.7945H109.033C110.82 11.3046 114.692 4.13601 121.43 4.01101C127.294 3.90318 133.99 12.6011 133.765 24.1689C133.569 34.1829 127.961 44.4321 122.096 44.4321C119.398 44.4321 118.609 45.6257 121.251 45.6257C124.785 45.6257 128.162 43.5008 130.762 39.6408C133.527 35.5382 135.051 30.0435 135.051 24.1713C135.051 18.2992 133.529 12.8045 130.762 8.70185V8.6994Z" fill="#C8C8C8"/>
<path d="M374.514 39.7925C373.607 39.7925 372.534 37.4447 372.362 37.0354C371.867 35.8492 371.997 34.4988 372.715 33.4229C373.443 32.3298 374.659 31.6755 375.97 31.6755C377.546 31.6755 378.952 32.6092 379.555 34.0577C379.59 34.1385 379.641 34.2341 379.697 34.3419C380.004 34.9277 380.513 35.9056 379.908 36.8589C379.44 37.5966 375.423 39.7901 374.516 39.7901L374.514 39.7925Z" fill="#808080"/>
<path d="M386.038 0.694824C379.325 0.694824 373.595 7.03751 371.299 15.7942H378.619C380.308 10.9514 383.281 7.71148 386.038 7.71148C390.194 7.71148 394.841 14.7502 394.841 24.1686C394.841 33.5871 390.194 40.6258 386.038 40.6258C383.511 40.6258 380.803 38.0206 379.068 33.8591C378.526 32.5602 377.249 31.7171 375.842 31.7171C373.357 31.7171 371.634 34.2439 372.595 36.5354C375.384 43.2016 380.362 47.6424 386.038 47.6424C394.775 47.6424 401.858 37.1334 401.858 24.1686C401.858 11.2039 394.775 0.694824 386.038 0.694824Z" fill="#AFAFAF"/>
<path d="M395.549 8.6994C392.949 4.83939 389.569 2.71454 386.038 2.71454C380.435 2.71454 375.519 8.12102 373.379 15.7945H373.82C375.607 11.3046 379.479 4.13601 386.217 4.01101C392.081 3.90318 398.777 12.6011 398.551 24.1689C398.355 34.1829 392.748 44.4321 386.883 44.4321C384.185 44.4321 383.396 45.6257 386.038 45.6257C389.572 45.6257 392.949 43.5008 395.549 39.6408C398.314 35.5382 399.838 30.0435 399.838 24.1713C399.838 18.2992 398.316 12.8045 395.549 8.70185V8.6994Z" fill="#C8C8C8"/>
<path d="M162.697 39.7925C161.791 39.7925 160.717 37.4447 160.546 37.0354C160.051 35.8492 160.18 34.4988 160.899 33.4229C161.626 32.3298 162.845 31.6755 164.153 31.6755C165.729 31.6755 167.136 32.6092 167.739 34.0577C167.773 34.1385 167.825 34.2341 167.881 34.3419C168.187 34.9277 168.697 35.9056 168.092 36.8589C167.624 37.5966 163.607 39.7901 162.7 39.7901L162.697 39.7925Z" fill="#808080"/>
<path d="M174.221 0.694824C167.467 0.694824 161.707 6.98114 159.438 15.8236H166.744C168.42 10.8877 171.43 7.71148 174.221 7.71148C178.375 7.71148 183.024 14.7502 183.024 24.1686C183.024 33.5871 178.378 40.6258 174.221 40.6258C171.694 40.6258 168.986 38.0206 167.251 33.8591C166.709 32.5602 165.432 31.7171 164.026 31.7171C161.541 31.7171 159.818 34.2439 160.778 36.5354C163.567 43.2016 168.545 47.6424 174.221 47.6424C182.958 47.6424 190.041 37.1334 190.041 24.1686C190.041 11.2039 182.958 0.694824 174.221 0.694824Z" fill="#AFAFAF"/>
<path d="M183.733 8.6994C181.132 4.83939 177.753 2.71454 174.221 2.71454C168.577 2.71454 163.631 8.06219 161.516 15.8239H161.94C163.697 11.3438 167.579 4.13601 174.402 4.01101C180.267 3.90318 186.963 12.6011 186.737 24.1689C186.541 34.1829 180.934 44.4321 175.069 44.4321C172.371 44.4321 171.582 45.6257 174.223 45.6257C177.758 45.6257 181.135 43.5008 183.735 39.6408C186.5 35.5382 188.024 30.0435 188.024 24.1713C188.024 18.2992 186.502 12.8045 183.735 8.70185L183.733 8.6994Z" fill="#C8C8C8"/>
<path d="M427.484 39.7925C426.578 39.7925 425.504 37.4447 425.333 37.0354C424.837 35.8492 424.967 34.4988 425.685 33.4229C426.413 32.3298 427.631 31.6755 428.94 31.6755C430.516 31.6755 431.923 32.6092 432.526 34.0577C432.56 34.1385 432.611 34.2341 432.668 34.3419C432.974 34.9277 433.484 35.9056 432.879 36.8589C432.41 37.5966 428.394 39.7901 427.487 39.7901L427.484 39.7925Z" fill="#808080"/>
<path d="M439.008 0.694824C432.253 0.694824 426.494 6.98114 424.225 15.8236H431.53C433.207 10.8877 436.216 7.71148 439.008 7.71148C443.162 7.71148 447.811 14.7502 447.811 24.1686C447.811 33.5871 443.164 40.6258 439.008 40.6258C436.481 40.6258 433.773 38.0206 432.038 33.8591C431.496 32.5602 430.219 31.7171 428.813 31.7171C426.327 31.7171 424.604 34.2439 425.565 36.5354C428.354 43.2016 433.332 47.6424 439.008 47.6424C447.745 47.6424 454.828 37.1334 454.828 24.1686C454.828 11.2039 447.745 0.694824 439.008 0.694824Z" fill="#AFAFAF"/>
<path d="M448.519 8.6994C445.919 4.83939 442.539 2.71454 439.008 2.71454C433.364 2.71454 428.418 8.06219 426.303 15.8239H426.727C428.484 11.3438 432.366 4.13601 439.189 4.01101C445.054 3.90318 451.75 12.6011 451.524 24.1689C451.328 34.1829 445.721 44.4321 439.856 44.4321C437.158 44.4321 436.368 45.6257 439.01 45.6257C442.544 45.6257 445.922 43.5008 448.522 39.6408C451.286 35.5382 452.811 30.0435 452.811 24.1713C452.811 18.2992 451.289 12.8045 448.522 8.70185L448.519 8.6994Z" fill="#C8C8C8"/>
<path d="M215.662 39.7925C214.756 39.7925 213.682 37.4447 213.511 37.0354C213.016 35.8492 213.146 34.4988 213.864 33.4229C214.591 32.3298 215.81 31.6755 217.118 31.6755C218.694 31.6755 220.101 32.6092 220.704 34.0577C220.738 34.1385 220.79 34.2341 220.846 34.3419C221.152 34.9277 221.662 35.9056 221.057 36.8589C220.589 37.5966 216.572 39.7901 215.665 39.7901L215.662 39.7925Z" fill="#808080"/>
<path d="M227.186 0.694824C220.437 0.694824 214.68 6.97379 212.408 15.8065H219.716C221.395 10.8804 224.397 7.71148 227.184 7.71148C231.338 7.71148 235.987 14.7502 235.987 24.1686C235.987 33.5871 231.34 40.6258 227.184 40.6258C224.657 40.6258 221.949 38.0206 220.214 33.8591C219.672 32.5602 218.395 31.7171 216.989 31.7171C214.503 31.7171 212.78 34.2439 213.741 36.5354C216.53 43.2016 221.508 47.6424 227.184 47.6424C235.921 47.6424 243.004 37.1334 243.004 24.1686C243.004 11.2039 235.923 0.694824 227.186 0.694824Z" fill="#AFAFAF"/>
<path d="M236.698 8.6994C234.098 4.83939 230.718 2.71454 227.186 2.71454C221.549 2.71454 216.609 8.05484 214.491 15.8067H214.913C216.675 11.3242 220.554 4.13601 227.368 4.01101C233.232 3.90318 239.928 12.6011 239.703 24.1689C239.507 34.1829 233.899 44.4321 228.034 44.4321C225.336 44.4321 224.547 45.6257 227.189 45.6257C230.723 45.6257 234.1 43.5008 236.7 39.6408C239.465 35.5382 240.989 30.0435 240.989 24.1713C240.989 18.2992 239.467 12.8045 236.7 8.70185L236.698 8.6994Z" fill="#C8C8C8"/>
<path d="M480.449 39.7925C479.543 39.7925 478.469 37.4447 478.298 37.0354C477.802 35.8492 477.932 34.4988 478.65 33.4229C479.378 32.3298 480.596 31.6755 481.905 31.6755C483.481 31.6755 484.888 32.6092 485.491 34.0577C485.525 34.1385 485.576 34.2341 485.633 34.3419C485.939 34.9277 486.449 35.9056 485.844 36.8589C485.375 37.5966 481.359 39.7901 480.452 39.7901L480.449 39.7925Z" fill="#808080"/>
<path d="M491.973 0.694824C485.224 0.694824 479.467 6.97379 477.195 15.8065H484.503C486.182 10.8804 489.184 7.71148 491.971 7.71148C496.125 7.71148 500.774 14.7502 500.774 24.1686C500.774 33.5871 496.127 40.6258 491.971 40.6258C489.444 40.6258 486.736 38.0206 485.001 33.8591C484.459 32.5602 483.182 31.7171 481.775 31.7171C479.29 31.7171 477.567 34.2439 478.528 36.5354C481.317 43.2016 486.295 47.6424 491.971 47.6424C500.708 47.6424 507.791 37.1334 507.791 24.1686C507.791 11.2039 500.71 0.694824 491.973 0.694824Z" fill="#AFAFAF"/>
<path d="M501.485 8.6994C498.884 4.83939 495.505 2.71454 491.973 2.71454C486.336 2.71454 481.396 8.05484 479.278 15.8067H479.7C481.462 11.3242 485.341 4.13601 492.155 4.01101C498.019 3.90318 504.715 12.6011 504.489 24.1689C504.293 34.1829 498.686 44.4321 492.821 44.4321C490.123 44.4321 489.334 45.6257 491.976 45.6257C495.51 45.6257 498.887 43.5008 501.487 39.6408C504.252 35.5382 505.776 30.0435 505.776 24.1713C505.776 18.2992 504.254 12.8045 501.487 8.70185L501.485 8.6994Z" fill="#C8C8C8"/>
</svg>
